<mxfile host="app.diagrams.net" modified="2024-03-06T07:55:00.718Z" agent="Mozilla/5.0 (Macintosh; Intel Mac OS X 10_15_7) AppleWebKit/537.36 (KHTML, like Gecko) Chrome/121.0.0.0 Safari/537.36" etag="_qZhF1tKozjqPMycP-NQ" version="23.1.7" type="github">
  <diagram name="第 1 页" id="lJJsQC5AeHxFyqL9eE7w">
    <mxGraphModel dx="954" dy="524" grid="1" gridSize="10" guides="1" tooltips="1" connect="1" arrows="1" fold="1" page="1" pageScale="1" pageWidth="827" pageHeight="1169" math="0" shadow="0">
      <root>
        <mxCell id="0" />
        <mxCell id="1" parent="0" />
        <mxCell id="MDflZ0rk2D2E5vkTJuB2-1" value="短链接系统" style="swimlane;childLayout=stackLayout;resizeParent=1;resizeParentMax=0;startSize=20;html=1;" vertex="1" parent="1">
          <mxGeometry x="210.00000000000045" y="100" width="360" height="480" as="geometry" />
        </mxCell>
        <mxCell id="MDflZ0rk2D2E5vkTJuB2-2" value="短链接服务" style="swimlane;startSize=20;html=1;" vertex="1" parent="MDflZ0rk2D2E5vkTJuB2-1">
          <mxGeometry y="20" width="120" height="460" as="geometry" />
        </mxCell>
        <mxCell id="MDflZ0rk2D2E5vkTJuB2-3" value="Redis" style="swimlane;startSize=20;html=1;" vertex="1" parent="MDflZ0rk2D2E5vkTJuB2-1">
          <mxGeometry x="120" y="20" width="120" height="460" as="geometry" />
        </mxCell>
        <mxCell id="MDflZ0rk2D2E5vkTJuB2-4" value="MySQL" style="swimlane;startSize=20;html=1;" vertex="1" parent="MDflZ0rk2D2E5vkTJuB2-1">
          <mxGeometry x="240" y="20" width="120" height="460" as="geometry" />
        </mxCell>
      </root>
    </mxGraphModel>
  </diagram>
</mxfile>
